<mxfile host="app.diagrams.net" modified="2023-01-09T07:08:17.971Z" agent="5.0 (Windows NT 10.0; Win64; x64) AppleWebKit/537.36 (KHTML, like Gecko) Chrome/108.0.0.0 Safari/537.36" etag="PveznQqjlenQ0VhH7GJq" version="20.6.2" type="github">
  <diagram id="prtHgNgQTEPvFCAcTncT" name="Page-1">
    <mxGraphModel dx="1662" dy="762" grid="1" gridSize="10" guides="1" tooltips="1" connect="1" arrows="1" fold="1" page="1" pageScale="1" pageWidth="827" pageHeight="1169" math="0" shadow="0">
      <root>
        <mxCell id="0" />
        <mxCell id="1" parent="0" />
        <mxCell id="FPT-U1vLb6f6hilMJWcg-1" value="Pool" style="swimlane;childLayout=stackLayout;resizeParent=1;resizeParentMax=0;startSize=20;html=1;" vertex="1" parent="1">
          <mxGeometry x="190.00000000000045" y="140" width="540" height="480" as="geometry" />
        </mxCell>
        <mxCell id="FPT-U1vLb6f6hilMJWcg-2" value="Client" style="swimlane;startSize=20;html=1;" vertex="1" parent="FPT-U1vLb6f6hilMJWcg-1">
          <mxGeometry y="20" width="170" height="460" as="geometry" />
        </mxCell>
        <mxCell id="FPT-U1vLb6f6hilMJWcg-3" value="DS" style="swimlane;startSize=20;html=1;" vertex="1" parent="FPT-U1vLb6f6hilMJWcg-1">
          <mxGeometry x="170" y="20" width="190" height="460" as="geometry" />
        </mxCell>
        <mxCell id="FPT-U1vLb6f6hilMJWcg-4" value="PhotonCloud" style="swimlane;startSize=20;html=1;fillColor=#99FF99;" vertex="1" parent="FPT-U1vLb6f6hilMJWcg-1">
          <mxGeometry x="360" y="20" width="180" height="460" as="geometry" />
        </mxCell>
      </root>
    </mxGraphModel>
  </diagram>
</mxfile>
